<svg width="138" height="120" viewBox="0 0 138 120" fill="none" xmlns="http://www.w3.org/2000/svg">
<path d="M69.7183 107.322C69.0744 107.352 68.4297 107.292 67.7996 107.143V100.582C68.232 100.552 68.6644 100.522 69.0969 100.522C70.7179 100.522 72.2314 100.849 72.2314 103.58C72.2314 106.075 71.3665 107.322 69.7183 107.322ZM69.124 97.8795C67.6916 97.8545 66.2607 97.9939 64.8547 98.2955V113.913H67.7996V109.697C68.5688 109.826 69.3454 109.896 70.1236 109.905C73.4472 109.905 75.3116 106.995 75.3116 103.491C75.3116 99.0674 72.258 97.8795 69.124 97.8795ZM117.545 111.567C116.896 111.567 116.248 111.508 115.6 111.449V104.887H116.924C118.545 104.887 120.058 105.036 120.058 107.826C120.085 110.291 119.22 111.567 117.545 111.567ZM117.113 102.214C116.545 102.214 116.059 102.214 115.626 102.244V98.2358H112.681V113.883C113.573 113.943 116.599 114.091 117.95 114.091C121.301 114.091 123.138 111.182 123.138 107.767C123.138 103.254 120.058 102.214 117.113 102.214ZM86.6871 106.668C86.3628 106.698 85.9309 106.698 85.228 106.698C83.9313 106.698 82.2021 106.164 82.2021 103.461C82.2021 101.532 83.1745 100.582 84.7961 100.582C85.5795 100.582 86.2547 100.641 86.7143 100.671V106.668L86.6871 106.668ZM79.1214 103.461C79.1214 105.867 80.0943 107.381 81.4182 108.301C80.2024 110.024 78.7704 111.508 76.8245 111.746L78.0675 114.24C80.0134 114.21 81.3373 113.349 84.1203 109.311C84.5415 109.37 84.9658 109.4 85.3904 109.4C85.9847 109.4 86.39 109.4 86.6871 109.371V113.943H89.6326V98.3546C88.0443 98.048 86.4353 97.8891 84.8227 97.8795C81.2563 97.8795 79.1214 99.958 79.1214 103.461ZM44.616 110.439C44.616 116.17 38.7795 120 32.862 120L32.0513 117.358C36.4827 117.268 41.4005 115.042 41.4005 110.499C41.4005 107.559 39.347 106.758 37.1583 106.758C36.6249 106.753 36.0919 106.792 35.564 106.877V105.125L39.9954 100.819H36.834C35.2127 100.819 33.5104 100.641 32.97 100.047L33.8617 97.2861C34.5643 98.058 36.7799 98.2066 38.0499 98.2066H44.2647V100.018L39.7252 104.472C42.5894 104.679 44.616 106.461 44.616 110.439ZM103.467 111.093H97.9008C99.1373 107.781 100.061 104.339 100.657 100.819H103.467V111.093ZM106.412 98.2657H98.0899C98.0888 99.3151 97.98 100.361 97.7656 101.384C97.1441 104.62 95.7121 108.658 94.8206 111.093H92.7128L92.3885 117.654H95.253L95.4421 113.943H106.169L105.845 119.228H108.79L109.25 111.093H106.359V98.2657L106.412 98.2657ZM133.676 111.538C134.982 111.557 136.286 111.427 137.567 111.152V113.913C136.315 114.122 135.051 114.241 133.784 114.27C128.975 114.27 125.976 112.488 125.976 106.045C125.976 103.225 126.759 99.6315 129.083 98.2657H132.055C134.595 98.2657 135.973 98.0878 136.919 97.6127L138 100.225C136.865 100.849 135.487 100.938 133.379 100.938H130.434C129.542 101.591 129.164 103.521 129.083 104.649H131.839C132.758 104.649 135.271 104.649 135.973 104.472L136.703 107.114C135.811 107.232 134.163 107.262 132.596 107.262H129.083C129.299 110.172 130.65 111.538 133.676 111.538ZM51.7225 107.559C53.3167 101.948 53.3707 101.769 53.3707 101.74C53.4531 101.409 53.5074 101.071 53.5328 100.73H54.6406L56.505 107.559H51.7225ZM51.0739 98.2657C51.209 99.1271 50.9118 100.879 50.6416 101.74L46.8857 113.972H49.9661L50.9929 110.32H57.2889L58.2613 113.972H61.4501L56.8836 98.2955H51.0739V98.2657Z" fill="#151515"/>
<path d="M3.19102 106.854C2.74381 106.861 2.29817 106.794 1.86903 106.656C1.5126 106.541 1.17977 106.352 0.888929 106.098C0.62756 105.864 0.413979 105.572 0.26212 105.242C0.106889 104.889 0.017753 104.505 0 104.114H1.41317C1.4402 104.325 1.49792 104.53 1.58412 104.721C1.67408 104.901 1.79391 105.061 1.9374 105.192C2.09912 105.322 2.28049 105.418 2.47304 105.478C2.70688 105.548 2.94862 105.581 3.19102 105.577C3.81403 105.577 4.26229 105.457 4.5358 105.217C4.67342 105.101 4.78359 104.951 4.85698 104.778C4.93038 104.605 4.96485 104.416 4.95747 104.225C4.96017 104.034 4.9292 103.845 4.8663 103.667C4.80326 103.49 4.69675 103.335 4.55859 103.221C4.39707 103.083 4.21047 102.986 4.01156 102.935C3.74431 102.855 3.46798 102.818 3.19102 102.824H2.22231V101.683H3.19102C3.70766 101.683 4.08374 101.559 4.31926 101.31C4.43278 101.195 4.52291 101.055 4.58379 100.899C4.64467 100.743 4.67492 100.575 4.67256 100.405C4.67596 100.238 4.64494 100.072 4.5818 99.9194C4.51865 99.7669 4.42502 99.6321 4.30787 99.5249C4.07234 99.2933 3.70006 99.1775 3.19102 99.1775C2.95686 99.1733 2.72319 99.2024 2.49583 99.2641C2.32343 99.3128 2.16101 99.3971 2.01717 99.5124C1.88855 99.619 1.78661 99.7597 1.72087 99.9213C1.64953 100.09 1.60336 100.27 1.58411 100.455H0.170942C0.188305 100.09 0.269565 99.732 0.410269 99.4008C0.540917 99.0871 0.735967 98.8111 0.980091 98.5943C1.25361 98.3585 1.56756 98.1858 1.9032 98.0863C2.32184 97.9552 2.75575 97.8924 3.19101 97.9C4.16351 97.9 4.88908 98.1191 5.36773 98.5573C5.60722 98.7722 5.79783 99.0456 5.92443 99.3556C6.05103 99.6656 6.11015 100.004 6.0971 100.343C6.10712 100.765 5.98211 101.178 5.74383 101.509C5.50438 101.832 5.18308 102.069 4.8207 102.191C5.26082 102.291 5.66025 102.543 5.96036 102.91C6.25331 103.295 6.40385 103.786 6.38203 104.287C6.38536 104.643 6.31522 104.995 6.1769 105.316C6.03554 105.637 5.82883 105.917 5.57287 106.135C5.27068 106.378 4.93088 106.558 4.56998 106.668C4.12037 106.8 3.65629 106.862 3.19102 106.854Z" fill="#151515"/>
<path d="M7.63464 106.716L10.6319 98.0352H12.0337L15.0424 106.716H13.538L12.8543 104.72H9.70881L9.02503 106.716H7.63464ZM10.1419 103.479H12.4212L11.2816 99.9322L10.1419 103.479Z" fill="#151515"/>
<path d="M16.8914 106.853C16.8306 106.853 16.7622 106.848 16.6862 106.84C16.621 106.84 16.5559 106.832 16.4925 106.816V105.401C16.5141 105.411 16.5375 105.415 16.5609 105.414H16.6634C16.8527 105.421 17.0395 105.365 17.1991 105.253C17.3821 105.064 17.5059 104.817 17.5523 104.546C17.6629 104.033 17.7278 103.51 17.746 102.983C17.7841 102.305 17.8031 101.4 17.803 100.267V98.0352H22.8163V106.716H21.4145V99.3245H19.1593V100.515C19.1718 101.605 19.1224 102.694 19.0111 103.777C18.95 104.441 18.8043 105.092 18.578 105.712C18.4434 106.096 18.1944 106.42 17.8714 106.629C17.5643 106.784 17.2292 106.86 16.8914 106.853Z" fill="#151515"/>
<path fill-rule="evenodd" clip-rule="evenodd" d="M34.1859 24.3977C33.9942 24.8268 33.8246 25.2674 33.6779 25.7174V85.3627H34.1859V24.3977ZM40.1882 15.2759C40.0157 15.4783 39.8463 15.6802 39.6802 15.8817V85.3627H40.1882V15.2759ZM46.1904 9.33426C46.0195 9.47645 45.8501 9.61928 45.6824 9.76274V85.3627H46.1904V9.33426ZM52.1926 5.11771C52.0222 5.21699 51.8529 5.31725 51.6846 5.41851V85.3627H52.1926V5.11771ZM58.1953 2.26337C58.0247 2.32686 57.8554 2.39147 57.6874 2.45719V85.3627H58.1953V2.26337ZM64.1971 0.593343C64.0276 0.624986 63.8583 0.657796 63.6892 0.691773V85.3627H64.1971V0.593343ZM70.1994 0C70.0299 0.00229445 69.8606 0.00578172 69.6915 0.0104608V85.3627H70.1994V0ZM76.2017 0.647461C76.0322 0.608726 75.8633 0.57162 75.6938 0.536166V85.3627H76.2017V0.647461ZM82.2041 2.64864C82.0346 2.57578 81.8652 2.50421 81.6961 2.43392V85.3627H82.2041V2.64864ZM88.2064 5.72167C88.0374 5.62241 87.8681 5.52411 87.6984 5.42675V85.3627H88.2064V5.72167ZM94.2087 9.59942C94.0392 9.48111 93.8699 9.36345 93.7007 9.24645V85.3627H94.2087V9.59942ZM100.211 14.0224C100.042 13.8924 99.8722 13.7628 99.7031 13.6334V85.3627H100.211V14.0224ZM106.213 18.7289C106.044 18.5947 105.875 18.4605 105.705 18.3262V85.3627H106.213V18.7289ZM112.216 23.4439C112.046 23.3136 111.877 23.1828 111.707 23.0517V85.3627H112.216V23.4439ZM118.218 27.8667C118.049 27.7493 117.88 27.631 117.71 27.5119V85.3627H118.218V27.8667ZM124.22 31.6533C124.051 31.5592 123.881 31.4638 123.712 31.367V85.3627H124.22V31.6533ZM130.223 34.392C130.053 34.3341 129.884 34.2744 129.714 34.2127V85.3627H130.223V34.392ZM136.224 35.5653C136.055 35.5602 135.886 35.5525 135.716 35.5421V85.3627H136.224V35.5653Z" fill="#151515"/>
<path fill-rule="evenodd" clip-rule="evenodd" d="M35.4391 41.2535C34.9607 41.8456 34.5308 42.4084 34.1512 42.9262V85.3642H35.4391V41.2535ZM41.4413 35.2055C40.9977 35.5618 40.5684 35.9241 40.1535 36.2924V85.3642H41.4413V35.2055ZM47.4435 31.4486C47.0062 31.6482 46.5769 31.8592 46.1557 32.0817V85.3642H47.4435V31.4486ZM53.4459 29.6669C53.011 29.7282 52.5818 29.8028 52.158 29.8908V85.3642H53.4459V29.6669ZM59.4483 29.6691C59.0251 29.6159 58.5957 29.5732 58.1602 29.541V85.3642H59.4483V29.6691ZM65.4506 31.2236C65.028 31.0542 64.5986 30.8958 64.1626 30.7484V85.3642H65.4506V31.2236ZM71.4529 34.5605C71.0297 34.2585 70.6004 33.9666 70.1649 33.685V85.3642H71.4529V34.5605ZM77.4547 39.7267C77.0299 39.3052 76.6007 38.8902 76.1672 38.4817V85.3642H77.4547V39.7267ZM83.457 46.0933C83.2196 45.8348 82.9824 45.576 82.7453 45.3171C82.5536 45.1077 82.3616 44.8984 82.1695 44.6891V85.3642H83.457L83.457 46.0933ZM89.4593 52.2784C89.0258 51.8733 88.5966 51.4609 88.1718 51.0412V85.3642H89.4593V52.2784ZM95.4616 57.0194C95.0265 56.7432 94.5973 56.4562 94.1741 56.1583V85.3642H95.4616V57.0194ZM101.464 59.8754C101.028 59.7351 100.599 59.583 100.176 59.4192V85.3642H101.464V59.8754ZM107.466 60.9869C107.031 60.9618 106.601 60.9262 106.179 60.88V85.3642H107.466V60.9869ZM113.469 60.606C113.044 60.6848 112.614 60.7533 112.181 60.8114V85.3642H113.469V60.606ZM119.471 58.7446C119.048 58.9289 118.619 59.1043 118.183 59.2706V85.3642H119.471V58.7446ZM125.473 55.3522C125.053 55.6453 124.624 55.9325 124.185 56.2137V85.3642H125.473V55.3522ZM131.476 50.295C131.065 50.7038 130.636 51.1165 130.187 51.5331V85.3642H131.476V50.295ZM137.478 43.0818C137.399 43.2032 136.959 43.8757 136.19 44.8946V85.3642H137.478V43.0818Z" fill="#151515"/>
<path fill-rule="evenodd" clip-rule="evenodd" d="M136.743 61.2906V85.3628H134.09V58.5624C135.263 59.7182 136.168 60.6715 136.743 61.2906ZM130.74 55.4161V85.3628H128.088V53.1335C129.025 53.9082 129.912 54.6756 130.74 55.4161ZM124.738 50.5121V85.3628H122.085V48.65C122.993 49.2534 123.879 49.8778 124.738 50.5121ZM118.736 46.5874V85.3628H116.083V45.2028C116.977 45.6298 117.863 46.0942 118.736 46.5874ZM112.733 43.8051V85.3628H110.081V43.0117C110.965 43.2256 111.851 43.4927 112.733 43.8051ZM106.731 42.471V85.3628H104.078V42.4778C104.517 42.4396 104.957 42.4203 105.4 42.4199C105.842 42.4199 106.285 42.437 106.731 42.471ZM100.729 43.1303V85.3628H98.0761V44.1337C98.9403 43.7383 99.8263 43.4032 100.729 43.1303ZM94.7265 45.9538V85.3628H92.0738V47.7751C92.955 47.1214 93.8383 46.5111 94.7265 45.9538ZM88.7242 50.4591V85.3628H86.0715V52.8098C86.9564 52.0009 87.8403 51.2141 88.7242 50.4591ZM82.7218 55.9478V85.3628H80.0692V58.4822C80.4652 58.1046 80.8601 57.7273 81.254 57.3503C81.7445 56.8809 82.2338 56.4134 82.7218 55.9478ZM74.0669 64.0156C74.9594 63.2384 75.8427 62.4415 76.7195 61.6338V85.3628H74.0669V64.0156ZM68.0645 68.7511C68.9593 68.1303 69.8431 67.4743 70.7172 66.7914V85.3628H68.0645V68.7511ZM34.7038 65.3629C33.7558 64.3311 32.8697 63.2328 32.0511 62.075V85.3628H34.7038V65.3629ZM64.7149 70.8667V85.3628H62.0622V72.2253C62.9586 71.8164 63.8424 71.361 64.7149 70.8667ZM58.7126 73.5112C57.8396 73.7829 56.9544 74.0047 56.0605 74.1756V85.3628H58.7126V73.5112ZM52.7106 74.557C52.4385 74.5671 52.1652 74.5721 51.8907 74.5719C51.2785 74.5717 50.6667 74.536 50.058 74.4651V85.3628H52.7106V74.557ZM46.7083 73.7279C45.8039 73.4343 44.9178 73.0763 44.0557 72.6563V85.3629H46.7083V73.7279ZM40.7061 70.6906C39.7903 70.0564 38.9049 69.3708 38.0534 68.6365V85.3628H40.7061V70.6906Z" fill="#151515"/>
</svg>
