<svg width="16" height="14" viewBox="0 0 16 14" fill="none" xmlns="http://www.w3.org/2000/svg">
<path fill-rule="evenodd" clip-rule="evenodd" d="M1 8.00009L12.865 8.00009L9.232 12.3601C8.878 12.7841 8.936 13.4151 9.36 13.7681C9.785 14.1221 10.415 14.0641 10.768 13.6401L15.768 7.64009C15.807 7.59309 15.827 7.53809 15.856 7.48609C15.88 7.44409 15.909 7.40809 15.927 7.36209C15.972 7.24709 15.999 7.12609 15.999 7.00409C15.999 7.00309 16 7.00109 16 7.00009C16 6.99909 15.999 6.99709 15.999 6.99609C15.999 6.87409 15.972 6.75309 15.927 6.63809C15.909 6.59209 15.88 6.55609 15.856 6.51409C15.827 6.46209 15.807 6.40709 15.768 6.36009L10.768 0.360091C10.57 0.12309 10.286 9.00995e-05 10 9.00745e-05C9.774 9.00548e-05 9.547 0.0760902 9.36 0.23209C8.936 0.58509 8.878 1.21609 9.232 1.64009L12.865 6.00009L1 6.00009C0.448001 6.00009 6.60209e-07 6.44809 6.11951e-07 7.00009C5.63694e-07 7.55209 0.448 8.00009 1 8.00009Z" fill="#FFFFFF"/>
</svg>
