<svg width="186" height="104" viewBox="0 0 186 104" fill="none" xmlns="http://www.w3.org/2000/svg">
<path d="M32.2754 75.8C32.2754 77 31.8514 78.024 31.0034 78.872C30.1554 79.72 29.1314 80.144 27.9314 80.144C26.7314 80.144 25.7074 79.72 24.8594 78.872C24.0114 78.024 23.5874 77 23.5874 75.8C23.5874 74.6 24.0114 73.576 24.8594 72.728C25.7074 71.88 26.7314 71.456 27.9314 71.456C29.1314 71.456 30.1554 71.88 31.0034 72.728C31.8514 73.576 32.2754 74.6 32.2754 75.8ZM23.9474 75.8C23.9474 76.92 24.3354 77.868 25.1114 78.644C25.8874 79.42 26.8274 79.808 27.9314 79.808C29.0274 79.808 29.9634 79.42 30.7394 78.644C31.5234 77.86 31.9154 76.912 31.9154 75.8C31.9154 74.696 31.5234 73.752 30.7394 72.968C29.9554 72.184 29.0194 71.792 27.9314 71.792C26.8354 71.792 25.8954 72.184 25.1114 72.968C24.3354 73.744 23.9474 74.688 23.9474 75.8ZM27.9674 78.104C27.3114 78.104 26.7594 77.88 26.3114 77.432C25.8634 76.984 25.6394 76.44 25.6394 75.8C25.6394 75.16 25.8634 74.616 26.3114 74.168C26.7594 73.72 27.3114 73.496 27.9674 73.496C28.3914 73.496 28.7754 73.596 29.1194 73.796C29.4714 73.996 29.7434 74.268 29.9354 74.612L29.2754 74.996C29.1634 74.756 28.9874 74.572 28.7474 74.444C28.5154 74.308 28.2554 74.24 27.9674 74.24C27.5034 74.24 27.1274 74.396 26.8394 74.708C26.5594 75.012 26.4194 75.376 26.4194 75.8C26.4194 76.216 26.5594 76.584 26.8394 76.904C27.1274 77.208 27.5034 77.36 27.9674 77.36C28.2634 77.36 28.5274 77.292 28.7594 77.156C28.9994 77.02 29.1754 76.832 29.2874 76.592L29.9474 76.988C29.7554 77.332 29.4834 77.604 29.1314 77.804C28.7794 78.004 28.3914 78.104 27.9674 78.104ZM38.572 80H33.232V79.244L36.256 76.196C37.12 75.332 37.552 74.592 37.552 73.976C37.552 73.456 37.388 73.044 37.06 72.74C36.74 72.428 36.34 72.272 35.86 72.272C35.004 72.272 34.376 72.668 33.976 73.46L33.268 73.04C33.524 72.528 33.88 72.136 34.336 71.864C34.792 71.592 35.3 71.456 35.86 71.456C36.532 71.456 37.12 71.684 37.624 72.14C38.136 72.58 38.392 73.192 38.392 73.976C38.392 74.44 38.264 74.896 38.008 75.344C37.752 75.784 37.36 76.268 36.832 76.796L34.432 79.184H38.572V80ZM45.0595 78.968C44.5075 79.752 43.7275 80.144 42.7195 80.144C41.7195 80.144 40.9355 79.752 40.3675 78.968C39.8155 78.176 39.5395 77.12 39.5395 75.8C39.5395 74.472 39.8155 73.42 40.3675 72.644C40.9355 71.852 41.7195 71.456 42.7195 71.456C43.7275 71.456 44.5075 71.852 45.0595 72.644C45.6195 73.42 45.8995 74.472 45.8995 75.8C45.8995 77.128 45.6195 78.184 45.0595 78.968ZM40.9915 78.404C41.4155 79.02 41.9915 79.328 42.7195 79.328C43.4555 79.328 44.0275 79.02 44.4355 78.404C44.8515 77.796 45.0595 76.928 45.0595 75.8C45.0595 74.672 44.8515 73.804 44.4355 73.196C44.0275 72.58 43.4555 72.272 42.7195 72.272C41.9915 72.272 41.4155 72.58 40.9915 73.196C40.5835 73.812 40.3795 74.68 40.3795 75.8C40.3795 76.92 40.5835 77.788 40.9915 78.404ZM52.2009 80H46.8609V79.244L49.8849 76.196C50.7489 75.332 51.1809 74.592 51.1809 73.976C51.1809 73.456 51.0169 73.044 50.6889 72.74C50.3689 72.428 49.9689 72.272 49.4889 72.272C48.6329 72.272 48.0049 72.668 47.6049 73.46L46.8969 73.04C47.1529 72.528 47.5089 72.136 47.9649 71.864C48.4209 71.592 48.9289 71.456 49.4889 71.456C50.1609 71.456 50.7489 71.684 51.2529 72.14C51.7649 72.58 52.0209 73.192 52.0209 73.976C52.0209 74.44 51.8929 74.896 51.6369 75.344C51.3809 75.784 50.9889 76.268 50.4609 76.796L48.0609 79.184H52.2009V80ZM58.0884 72.392L56.1324 75.092C56.7964 75.172 57.3484 75.432 57.7884 75.872C58.2284 76.288 58.4484 76.852 58.4484 77.564C58.4484 78.356 58.1724 78.988 57.6204 79.46C57.0844 79.916 56.4204 80.144 55.6284 80.144C54.9964 80.144 54.4364 80 53.9484 79.712C53.4604 79.416 53.1204 79.004 52.9284 78.476L53.6244 78.068C53.7604 78.476 54.0004 78.788 54.3444 79.004C54.6964 79.22 55.1244 79.328 55.6284 79.328C56.2204 79.328 56.6964 79.172 57.0564 78.86C57.4244 78.54 57.6084 78.108 57.6084 77.564C57.6084 77.02 57.4244 76.592 57.0564 76.28C56.6964 75.96 56.2204 75.8 55.6284 75.8V75.788L55.6164 75.8H55.3884L55.0284 75.248L57.1164 72.392H53.1684V71.6H58.0884V72.392ZM60.7373 79.46C60.7373 79.644 60.6733 79.8 60.5453 79.928C60.4173 80.056 60.2613 80.12 60.0773 80.12C59.8933 80.12 59.7373 80.056 59.6093 79.928C59.4813 79.8 59.4173 79.644 59.4173 79.46C59.4173 79.276 59.4813 79.12 59.6093 78.992C59.7373 78.864 59.8933 78.8 60.0773 78.8C60.2613 78.8 60.4173 78.864 60.5453 78.992C60.6733 79.12 60.7373 79.276 60.7373 79.46ZM65.4229 71.6H71.4229V80H70.5829V72.392H66.2629V80H65.4229V71.6ZM73.8488 74H78.1448V80H77.3528V74.768H74.6408V77.444C74.6408 78.444 74.4488 79.132 74.0648 79.508C73.6888 79.884 73.1688 80.048 72.5048 80V79.256C72.9688 79.304 73.3088 79.192 73.5248 78.92C73.7408 78.648 73.8488 78.156 73.8488 77.444V74ZM84.9824 75.176V74H85.7744V80H84.9824V78.824C84.4304 79.704 83.6224 80.144 82.5584 80.144C81.7024 80.144 80.9704 79.84 80.3624 79.232C79.7624 78.624 79.4624 77.88 79.4624 77C79.4624 76.12 79.7624 75.376 80.3624 74.768C80.9704 74.16 81.7024 73.856 82.5584 73.856C83.6224 73.856 84.4304 74.296 84.9824 75.176ZM80.9384 78.692C81.3944 79.148 81.9544 79.376 82.6184 79.376C83.2824 79.376 83.8424 79.148 84.2984 78.692C84.7544 78.22 84.9824 77.656 84.9824 77C84.9824 76.336 84.7544 75.776 84.2984 75.32C83.8424 74.856 83.2824 74.624 82.6184 74.624C81.9544 74.624 81.3944 74.856 80.9384 75.32C80.4824 75.776 80.2544 76.336 80.2544 77C80.2544 77.656 80.4824 78.22 80.9384 78.692ZM86.7313 74H91.7713V74.768H89.6473V80H88.8553V74.768H86.7313V74ZM96.0781 80.132V82.4H95.2861V80.132C94.3341 80.044 93.5741 79.712 93.0061 79.136C92.4301 78.544 92.1421 77.832 92.1421 77C92.1421 76.168 92.4301 75.456 93.0061 74.864C93.5741 74.288 94.3341 73.956 95.2861 73.868V71.6H96.0781V73.868C97.0301 73.956 97.7901 74.288 98.3581 74.864C98.9341 75.456 99.2221 76.168 99.2221 77C99.2221 77.832 98.9341 78.544 98.3581 79.136C97.7901 79.712 97.0301 80.044 96.0781 80.132ZM95.2861 79.352V74.648C94.5741 74.72 94.0021 74.972 93.5701 75.404C93.1461 75.836 92.9341 76.368 92.9341 77C92.9341 77.632 93.1461 78.164 93.5701 78.596C94.0021 79.028 94.5741 79.28 95.2861 79.352ZM96.0781 74.648V79.352C96.7901 79.28 97.3581 79.028 97.7821 78.596C98.2141 78.164 98.4301 77.632 98.4301 77C98.4301 76.368 98.2141 75.836 97.7821 75.404C97.3581 74.972 96.7901 74.72 96.0781 74.648ZM105.569 79.244C104.953 79.844 104.209 80.144 103.337 80.144C102.449 80.144 101.701 79.844 101.093 79.244C100.485 78.636 100.181 77.888 100.181 77C100.181 76.112 100.485 75.368 101.093 74.768C101.701 74.16 102.449 73.856 103.337 73.856C104.217 73.856 104.961 74.16 105.569 74.768C106.185 75.368 106.493 76.112 106.493 77C106.493 77.88 106.185 78.628 105.569 79.244ZM101.657 78.692C102.113 79.148 102.673 79.376 103.337 79.376C104.001 79.376 104.561 79.148 105.017 78.692C105.473 78.22 105.701 77.656 105.701 77C105.701 76.336 105.473 75.776 105.017 75.32C104.561 74.856 104.001 74.624 103.337 74.624C102.673 74.624 102.113 74.856 101.657 75.32C101.201 75.776 100.973 76.336 100.973 77C100.973 77.656 101.201 78.22 101.657 78.692ZM111.035 73.856C111.891 73.856 112.619 74.16 113.219 74.768C113.827 75.376 114.131 76.12 114.131 77C114.131 77.88 113.827 78.624 113.219 79.232C112.619 79.84 111.891 80.144 111.035 80.144C109.971 80.144 109.163 79.704 108.611 78.824V82.4H107.819V74H108.611V75.176C109.163 74.296 109.971 73.856 111.035 73.856ZM109.295 78.692C109.751 79.148 110.311 79.376 110.975 79.376C111.639 79.376 112.199 79.148 112.655 78.692C113.111 78.22 113.339 77.656 113.339 77C113.339 76.336 113.111 75.776 112.655 75.32C112.199 74.856 111.639 74.624 110.975 74.624C110.311 74.624 109.751 74.856 109.295 75.32C108.839 75.776 108.611 76.336 108.611 77C108.611 77.656 108.839 78.22 109.295 78.692ZM120.415 74H121.327V80H120.535V75.212L118.435 78.62H118.339L116.239 75.212V80H115.447V74H116.359L118.387 77.288L120.415 74ZM128.166 75.176V74H128.958V80H128.166V78.824C127.614 79.704 126.806 80.144 125.742 80.144C124.886 80.144 124.154 79.84 123.546 79.232C122.946 78.624 122.646 77.88 122.646 77C122.646 76.12 122.946 75.376 123.546 74.768C124.154 74.16 124.886 73.856 125.742 73.856C126.806 73.856 127.614 74.296 128.166 75.176ZM124.122 78.692C124.578 79.148 125.138 79.376 125.802 79.376C126.466 79.376 127.026 79.148 127.482 78.692C127.938 78.22 128.166 77.656 128.166 77C128.166 76.336 127.938 75.776 127.482 75.32C127.026 74.856 126.466 74.624 125.802 74.624C125.138 74.624 124.578 74.856 124.122 75.32C123.666 75.776 123.438 76.336 123.438 77C123.438 77.656 123.666 78.22 124.122 78.692ZM133.035 71.6H139.035V72.392H136.455V80H135.615V72.392H133.035V71.6ZM140.064 74V74.996C140.432 74.268 141.064 73.904 141.96 73.904V74.672C141.384 74.672 140.924 74.84 140.58 75.176C140.236 75.504 140.064 76 140.064 76.664V80H139.272V74H140.064ZM147.269 77.144V74H148.061V80H147.269V79.064C146.821 79.784 146.149 80.144 145.253 80.144C144.533 80.144 143.961 79.924 143.537 79.484C143.113 79.036 142.901 78.436 142.901 77.684V74H143.693V77.684C143.693 78.22 143.833 78.636 144.113 78.932C144.401 79.228 144.805 79.376 145.325 79.376C145.925 79.376 146.397 79.188 146.741 78.812C147.093 78.436 147.269 77.88 147.269 77.144ZM152.508 73.856C153.404 73.856 154.12 74.172 154.656 74.804C155.208 75.428 155.484 76.168 155.484 77.024C155.484 77.064 155.476 77.188 155.46 77.396H150.192C150.272 77.996 150.528 78.476 150.96 78.836C151.392 79.196 151.932 79.376 152.58 79.376C153.492 79.376 154.136 79.036 154.512 78.356L155.208 78.764C154.944 79.196 154.58 79.536 154.116 79.784C153.66 80.024 153.144 80.144 152.568 80.144C151.624 80.144 150.856 79.848 150.264 79.256C149.672 78.664 149.376 77.912 149.376 77C149.376 76.096 149.668 75.348 150.252 74.756C150.836 74.156 151.588 73.856 152.508 73.856ZM152.508 74.624C151.884 74.624 151.36 74.808 150.936 75.176C150.52 75.544 150.272 76.028 150.192 76.628H154.668C154.58 75.988 154.336 75.496 153.936 75.152C153.52 74.8 153.044 74.624 152.508 74.624ZM163.5 71.6H164.544V80H163.704V72.872L160.764 77.792H160.644L157.704 72.872V80H156.864V71.6H157.908L160.704 76.28L163.5 71.6ZM169.114 73.856C170.01 73.856 170.726 74.172 171.262 74.804C171.814 75.428 172.09 76.168 172.09 77.024C172.09 77.064 172.082 77.188 172.066 77.396H166.798C166.878 77.996 167.134 78.476 167.566 78.836C167.998 79.196 168.538 79.376 169.186 79.376C170.098 79.376 170.742 79.036 171.118 78.356L171.814 78.764C171.55 79.196 171.186 79.536 170.722 79.784C170.266 80.024 169.75 80.144 169.174 80.144C168.23 80.144 167.462 79.848 166.87 79.256C166.278 78.664 165.982 77.912 165.982 77C165.982 76.096 166.274 75.348 166.858 74.756C167.442 74.156 168.194 73.856 169.114 73.856ZM169.114 74.624C168.49 74.624 167.966 74.808 167.542 75.176C167.126 75.544 166.878 76.028 166.798 76.628H171.274C171.186 75.988 170.942 75.496 170.542 75.152C170.126 74.8 169.65 74.624 169.114 74.624ZM176.158 73.856C176.878 73.856 177.45 74.08 177.874 74.528C178.298 74.968 178.51 75.564 178.51 76.316V80H177.718V76.316C177.718 75.78 177.574 75.364 177.286 75.068C177.006 74.772 176.606 74.624 176.086 74.624C175.486 74.624 175.01 74.812 174.658 75.188C174.314 75.564 174.142 76.12 174.142 76.856V80H173.35V74H174.142V74.936C174.59 74.216 175.262 73.856 176.158 73.856ZM184.265 77.144V74H185.057V80H184.265V79.064C183.817 79.784 183.145 80.144 182.249 80.144C181.529 80.144 180.957 79.924 180.533 79.484C180.109 79.036 179.897 78.436 179.897 77.684V74H180.689V77.684C180.689 78.22 180.829 78.636 181.109 78.932C181.397 79.228 181.801 79.376 182.321 79.376C182.921 79.376 183.393 79.188 183.737 78.812C184.089 78.436 184.265 77.88 184.265 77.144Z" fill="#151515"/>
<path d="M68.676 44H80.521V47.036H76.174V60.1H73V47.036H68.676V44Z" fill="#151515"/>
<path d="M83.202 48.6V50.578C83.4626 49.8573 83.9073 49.313 84.536 48.945C85.1646 48.5617 85.8853 48.37 86.698 48.37V51.682C85.7933 51.5593 84.9806 51.7433 84.26 52.234C83.5546 52.7093 83.202 53.499 83.202 54.603V60.1H80.235V48.6H83.202Z" fill="#151515"/>
<path d="M95.5632 54.81V48.6H98.5302V60.1H95.5632V58.812C94.8579 59.8853 93.7155 60.422 92.1362 60.422C90.8789 60.422 89.8362 60.0003 89.0082 59.157C88.1955 58.2983 87.7892 57.133 87.7892 55.661V48.6H90.7562V55.293C90.7562 56.0443 90.9555 56.627 91.3542 57.041C91.7682 57.455 92.3279 57.662 93.0332 57.662C93.8152 57.662 94.4285 57.4243 94.8732 56.949C95.3332 56.4583 95.5632 55.7453 95.5632 54.81Z" fill="#151515"/>
<path d="M111.966 55.569H103.295C103.678 57.0103 104.759 57.731 106.538 57.731C107.672 57.731 108.531 57.3477 109.114 56.581L111.506 57.961C110.371 59.6017 108.7 60.422 106.492 60.422C104.59 60.422 103.065 59.847 101.915 58.697C100.765 57.547 100.19 56.098 100.19 54.35C100.19 52.6327 100.757 51.1913 101.892 50.026C103.011 48.8607 104.468 48.278 106.262 48.278C107.964 48.278 109.351 48.8607 110.425 50.026C111.529 51.1913 112.081 52.6327 112.081 54.35C112.081 54.672 112.042 55.0783 111.966 55.569ZM103.249 53.269H109.114C108.945 52.5177 108.6 51.9427 108.079 51.544C107.573 51.1453 106.967 50.946 106.262 50.946C105.464 50.946 104.805 51.153 104.284 51.567C103.762 51.9657 103.417 52.533 103.249 53.269Z" fill="#151515"/>
<path d="M126.319 44H129.585V60.1H126.434V49.658L121.903 57.133H121.535L117.004 49.681V60.1H113.83V44H117.096L121.719 51.613L126.319 44Z" fill="#151515"/>
<path d="M143.165 55.569H134.494C134.877 57.0103 135.958 57.731 137.737 57.731C138.871 57.731 139.73 57.3477 140.313 56.581L142.705 57.961C141.57 59.6017 139.899 60.422 137.691 60.422C135.789 60.422 134.264 59.847 133.114 58.697C131.964 57.547 131.389 56.098 131.389 54.35C131.389 52.6327 131.956 51.1913 133.091 50.026C134.21 48.8607 135.667 48.278 137.461 48.278C139.163 48.278 140.55 48.8607 141.624 50.026C142.728 51.1913 143.28 52.6327 143.28 54.35C143.28 54.672 143.241 55.0783 143.165 55.569ZM134.448 53.269H140.313C140.144 52.5177 139.799 51.9427 139.278 51.544C138.772 51.1453 138.166 50.946 137.461 50.946C136.663 50.946 136.004 51.153 135.483 51.567C134.961 51.9657 134.616 52.533 134.448 53.269Z" fill="#151515"/>
<path d="M151.285 48.278C152.558 48.278 153.593 48.6997 154.39 49.543C155.218 50.4017 155.632 51.567 155.632 53.039V60.1H152.665V53.407C152.665 52.6557 152.458 52.073 152.044 51.659C151.645 51.245 151.093 51.038 150.388 51.038C149.606 51.038 148.985 51.2833 148.525 51.774C148.08 52.2493 147.858 52.9547 147.858 53.89V60.1H144.891V48.6H147.858V49.888C148.563 48.8147 149.706 48.278 151.285 48.278Z" fill="#151515"/>
<path d="M165.295 54.81V48.6H168.262V60.1H165.295V58.812C164.59 59.8853 163.448 60.422 161.868 60.422C160.611 60.422 159.568 60.0003 158.74 59.157C157.928 58.2983 157.521 57.133 157.521 55.661V48.6H160.488V55.293C160.488 56.0443 160.688 56.627 161.086 57.041C161.5 57.455 162.06 57.662 162.765 57.662C163.547 57.662 164.161 57.4243 164.605 56.949C165.065 56.4583 165.295 55.7453 165.295 54.81Z" fill="#151515"/>
<g filter="url(#filter0_d_2117_6599)">
<path d="M63.6313 51.6645C63.6313 58.1066 58.3412 63.329 51.8156 63.329C45.2901 63.329 40 58.1066 40 51.6645C40 45.2224 45.2901 40 51.8156 40C58.3412 40 63.6313 45.2224 63.6313 51.6645Z" fill="url(#paint0_radial_2117_6599)"/>
</g>
<defs>
<filter id="filter0_d_2117_6599" x="0" y="0" width="103.631" height="103.329" filterUnits="userSpaceOnUse" color-interpolation-filters="sRGB">
<feFlood flood-opacity="0" result="BackgroundImageFix"/>
<feColorMatrix in="SourceAlpha" type="matrix" values="0 0 0 0 0 0 0 0 0 0 0 0 0 0 0 0 0 0 127 0" result="hardAlpha"/>
<feOffset/>
<feGaussianBlur stdDeviation="20"/>
<feComposite in2="hardAlpha" operator="out"/>
<feColorMatrix type="matrix" values="0 0 0 0 1 0 0 0 0 1 0 0 0 0 1 0 0 0 0.1 0"/>
<feBlend mode="normal" in2="BackgroundImageFix" result="effect1_dropShadow_2117_6599"/>
<feBlend mode="normal" in="SourceGraphic" in2="effect1_dropShadow_2117_6599" result="shape"/>
</filter>
<radialGradient id="paint0_radial_2117_6599" cx="0" cy="0" r="1" gradientUnits="userSpaceOnUse" gradientTransform="translate(37.5 60) rotate(-31.6769) scale(33.7719 32.6451)">
<stop stop-color="#89E2FF"/>
<stop offset="0.602553" stop-color="#4CCFF9"/>
<stop offset="1" stop-color="#6297FF"/>
</radialGradient>
</defs>
</svg>
