<svg width="12" height="12" viewBox="0 0 12 12" fill="none" xmlns="http://www.w3.org/2000/svg">
<path fill-rule="evenodd" clip-rule="evenodd" d="M10.6666 5.33366H6.66663V1.33366C6.66663 0.964992 6.36796 0.666992 5.99996 0.666992C5.63196 0.666992 5.33329 0.964992 5.33329 1.33366V5.33366H1.33329C0.965293 5.33366 0.666626 5.63166 0.666626 6.00033C0.666626 6.36899 0.965293 6.66699 1.33329 6.66699H5.33329V10.667C5.33329 11.0357 5.63196 11.3337 5.99996 11.3337C6.36796 11.3337 6.66663 11.0357 6.66663 10.667V6.66699H10.6666C11.0346 6.66699 11.3333 6.36899 11.3333 6.00033C11.3333 5.63166 11.0346 5.33366 10.6666 5.33366Z" fill="white"/>
</svg>
