<svg width="24" height="24" viewBox="0 0 24 24" fill="none" xmlns="http://www.w3.org/2000/svg">
<g opacity="1">
<path fill-rule="evenodd" clip-rule="evenodd" d="M19 16.402L13 17.75V7.59698L19 6.24998V16.402ZM5 6.24998L11 7.59698V17.75L5 16.402V6.24998ZM20.625 4.21798C20.387 4.02898 20.077 3.95698 19.78 4.02398L12 5.77198L4.22 4.02398C3.922 3.95598 3.613 4.02898 3.375 4.21798C3.138 4.40898 3 4.69598 3 4.99998V17.202C3 17.67 3.324 18.075 3.78 18.177L11.78 19.975C11.854 19.992 11.927 20 12 20C12.073 20 12.146 19.992 12.22 19.975L20.22 18.177C20.676 18.075 21 17.67 21 17.202V4.99998C21 4.69598 20.862 4.40898 20.625 4.21798Z" fill="white"/>
</g>
</svg>
