<svg width="48" height="48" viewBox="0 0 48 48" fill="none" xmlns="http://www.w3.org/2000/svg">
<path d="M0 17.5488C0 3.09736 3.09736 0 17.5488 0H30.4512C44.9026 0 48 3.09736 48 17.5488V30.4512C48 44.9026 44.9026 48 30.4512 48H17.5488C3.09736 48 0 44.9026 0 30.4512V17.5488Z" fill="#D9D9D9"/>
<path fill-rule="evenodd" clip-rule="evenodd" d="M19.4409 16.918C18.9409 17.272 18.4819 17.682 18.0659 18.146C15.2169 21.317 15.3099 26.391 18.2729 29.456C19.8389 31.077 21.9429 31.981 24.1969 32C24.2219 32.001 24.2479 32.001 24.2739 32.001C26.4989 32.001 28.5879 31.138 30.1639 29.565C30.4919 29.238 30.7899 28.887 31.0569 28.513C27.9109 28.905 24.6859 27.851 22.3949 25.565C20.1049 23.279 19.0449 20.061 19.4409 16.918ZM24.2739 34.001C24.2419 34.001 24.2109 34.001 24.1789 34C21.3849 33.976 18.7759 32.856 16.8349 30.847C13.1579 27.042 13.0429 20.745 16.5769 16.81C17.6779 15.583 19.0219 14.66 20.5709 14.067C20.9359 13.925 21.3509 14.013 21.6299 14.289C21.9089 14.564 22.0019 14.977 21.8669 15.345C20.7489 18.4 21.5109 21.856 23.8079 24.149C26.1059 26.442 29.5709 27.203 32.6359 26.087C33.0039 25.951 33.4179 26.047 33.6919 26.325C33.9659 26.606 34.0529 27.02 33.9119 27.385C33.3879 28.748 32.6019 29.958 31.5759 30.981C29.6229 32.931 27.0329 34.001 24.2739 34.001Z" fill="black"/>
</svg>
